{"asset":{"version":"2.0","generator":"Blockbench 4.12.6 glTF exporter"},"scenes":[{"nodes":[2],"name":"blockbench_export"}],"scene":0,"nodes":[{"name":"sphere","mesh":0},{"name":"sphere.001","mesh":1},{"children":[0,1]}],"bufferViews":[{"buffer":0,"byteOffset":0,"byteLength":4320,"target":34962,"byteStride":12},{"buffer":0,"byteOffset":4320,"byteLength":4320,"target":34962,"byteStride":12},{"buffer":0,"byteOffset":8640,"byteLength":2880,"target":34962,"byteStride":8},{"buffer":0,"byteOffset":11520,"byteLength":720,"target":34963},{"buffer":0,"byteOffset":12240,"byteLength":4320,"target":34962,"byteStride":12},{"buffer":0,"byteOffset":16560,"byteLength":4320,"target":34962,"byteStride":12},{"buffer":0,"byteOffset":20880,"byteLength":2880,"target":34962,"byteStride":8},{"buffer":0,"byteOffset":23760,"byteLength":720,"target":34963}],"buffers":[{"byteLength":24480,"uri":"data:application/octet-stream;base64,"}],"accessors":[{"bufferView":0,"componentType":5126,"count":360,"max":[0.25,0.5,0.5],"min":[-0.25,0.033493999391794205,-0.5],"type":"VEC3"},{"bufferView":1,"componentType":5126,"count":360,"max":[0.9659251570701599,1,0.8814132809638977],"min":[-0.9659251570701599,-1,-0.8814132809638977],"type":"VEC3"},{"bufferView":2,"componentType":5126,"count":360,"max":[0.578125,0.5948613286018372],"min":[0,0],"type":"VEC2"},{"bufferView":3,"componentType":5123,"count":360,"max":[359],"min":[0],"type":"SCALAR"},{"bufferView":4,"componentType":5126,"count":360,"max":[0.125,0.7248799800872803,-0.1875],"min":[-0.125,0.3125,-0.5625],"type":"VEC3"},{"bufferView":5,"componentType":5126,"count":360,"max":[0.9844167828559875,0.9659264087677002,0.9659264087677002],"min":[-0.9844167828559875,-0.9659264087677002,-0.9659264087677002],"type":"VEC3"},{"bufferView":6,"componentType":5126,"count":360,"max":[0.6875,0.6875],"min":[0.0017320702318102121,0],"type":"VEC2"},{"bufferView":7,"componentType":5123,"count":360,"max":[359],"min":[0],"type":"SCALAR"}],"materials":[{"pbrMetallicRoughness":{"metallicFactor":0,"roughnessFactor":1,"baseColorTexture":{"index":0}},"alphaMode":"MASK","alphaCutoff":0.05,"doubleSided":true}],"textures":[{"sampler":0,"source":0,"name":"Cat"}],"samplers":[{"magFilter":9728,"minFilter":9728,"wrapS":33071,"wrapT":33071}],"images":[{"mimeType":"image/png","uri":"data:image/png;base64,"}],"meshes":[{"primitives":[{"mode":4,"attributes":{"POSITION":0,"NORMAL":1,"TEXCOORD_0":2},"indices":3,"material":0}]},{"primitives":[{"mode":4,"attributes":{"POSITION":4,"NORMAL":5,"TEXCOORD_0":6},"indices":7,"material":0}]}]}