{"asset":{"version":"2.0","generator":"Blockbench 4.12.6 glTF exporter"},"scenes":[{"nodes":[11],"name":"blockbench_export"}],"scene":0,"nodes":[{"rotation":[-0.49999999999999795,0.4999999999999993,0.5000000000000004,0.5000000000000022],"translation":[0.2625,0.03125,-0.125],"name":"cylinder","mesh":0},{"rotation":[-0.49999999999999795,0.4999999999999993,0.5000000000000004,0.5000000000000022],"translation":[0.175,0.03125,0.1875],"name":"cylinder","mesh":1},{"rotation":[-0.49999999999999795,0.4999999999999993,0.5000000000000004,0.5000000000000022],"translation":[0.2625,0.03125,0.1875],"name":"cylinder","mesh":2},{"rotation":[-0.49999999999999795,0.4999999999999993,0.5000000000000004,0.5000000000000022],"translation":[0.2625,0.03125,-0.375],"name":"cylinder","mesh":3},{"rotation":[4.120991426922537e-20,0.7071067811865475,4.1209914269225367e-20,0.7071067811865476],"translation":[-0.03125,-0.15625,0.03125],"name":"cuboid","mesh":4},{"rotation":[-0.49999999999999795,0.4999999999999993,0.5000000000000004,0.5000000000000022],"translation":[0.175,0.03125,-0.375],"name":"cylinder","mesh":5},{"rotation":[-0.49999999999999795,0.4999999999999993,0.5000000000000004,0.5000000000000022],"translation":[0.175,0.03125,-0.125],"name":"cylinder","mesh":6},{"translation":[-0.03125,-0.1875,-0.3125],"name":"cuboid","mesh":7},{"translation":[-0.03125,0.09375000000000003,-0.28125],"name":"cuboid","mesh":8},{"rotation":[0.7071067811865475,0,0,0.7071067811865476],"translation":[0,0.09375,-0.4375],"name":"cylinder","mesh":9},{"rotation":[0.7071067811865475,0,0,0.7071067811865476],"translation":[-0.0625,0.09375,-0.4375],"name":"cylinder","mesh":10},{"children":[0,1,2,3,4,5,6,7,8,9,10]}],"bufferViews":[{"buffer":0,"byteOffset":0,"byteLength":1440,"target":34962,"byteStride":12},{"buffer":0,"byteOffset":1440,"byteLength":1440,"target":34962,"byteStride":12},{"buffer":0,"byteOffset":2880,"byteLength":960,"target":34962,"byteStride":8},{"buffer":0,"byteOffset":3840,"byteLength":288,"target":34963},{"buffer":0,"byteOffset":4128,"byteLength":1440,"target":34962,"byteStride":12},{"buffer":0,"byteOffset":5568,"byteLength":1440,"target":34962,"byteStride":12},{"buffer":0,"byteOffset":7008,"byteLength":960,"target":34962,"byteStride":8},{"buffer":0,"byteOffset":7968,"byteLength":288,"target":34963},{"buffer":0,"byteOffset":8256,"byteLength":1440,"target":34962,"byteStride":12},{"buffer":0,"byteOffset":9696,"byteLength":1440,"target":34962,"byteStride":12},{"buffer":0,"byteOffset":11136,"byteLength":960,"target":34962,"byteStride":8},{"buffer":0,"byteOffset":12096,"byteLength":288,"target":34963},{"buffer":0,"byteOffset":12384,"byteLength":1440,"target":34962,"byteStride":12},{"buffer":0,"byteOffset":13824,"byteLength":1440,"target":34962,"byteStride":12},{"buffer":0,"byteOffset":15264,"byteLength":960,"target":34962,"byteStride":8},{"buffer":0,"byteOffset":16224,"byteLength":288,"target":34963},{"buffer":0,"byteOffset":16512,"byteLength":288,"target":34962,"byteStride":12},{"buffer":0,"byteOffset":16800,"byteLength":288,"target":34962,"byteStride":12},{"buffer":0,"byteOffset":17088,"byteLength":192,"target":34962,"byteStride":8},{"buffer":0,"byteOffset":17280,"byteLength":72,"target":34963},{"buffer":0,"byteOffset":17352,"byteLength":1440,"target":34962,"byteStride":12},{"buffer":0,"byteOffset":18792,"byteLength":1440,"target":34962,"byteStride":12},{"buffer":0,"byteOffset":20232,"byteLength":960,"target":34962,"byteStride":8},{"buffer":0,"byteOffset":21192,"byteLength":288,"target":34963},{"buffer":0,"byteOffset":21480,"byteLength":1440,"target":34962,"byteStride":12},{"buffer":0,"byteOffset":22920,"byteLength":1440,"target":34962,"byteStride":12},{"buffer":0,"byteOffset":24360,"byteLength":960,"target":34962,"byteStride":8},{"buffer":0,"byteOffset":25320,"byteLength":288,"target":34963},{"buffer":0,"byteOffset":25608,"byteLength":288,"target":34962,"byteStride":12},{"buffer":0,"byteOffset":25896,"byteLength":288,"target":34962,"byteStride":12},{"buffer":0,"byteOffset":26184,"byteLength":192,"target":34962,"byteStride":8},{"buffer":0,"byteOffset":26376,"byteLength":72,"target":34963},{"buffer":0,"byteOffset":26448,"byteLength":288,"target":34962,"byteStride":12},{"buffer":0,"byteOffset":26736,"byteLength":288,"target":34962,"byteStride":12},{"buffer":0,"byteOffset":27024,"byteLength":192,"target":34962,"byteStride":8},{"buffer":0,"byteOffset":27216,"byteLength":72,"target":34963},{"buffer":0,"byteOffset":27288,"byteLength":1440,"target":34962,"byteStride":12},{"buffer":0,"byteOffset":28728,"byteLength":1440,"target":34962,"byteStride":12},{"buffer":0,"byteOffset":30168,"byteLength":960,"target":34962,"byteStride":8},{"buffer":0,"byteOffset":31128,"byteLength":288,"target":34963},{"buffer":0,"byteOffset":31416,"byteLength":1440,"target":34962,"byteStride":12},{"buffer":0,"byteOffset":32856,"byteLength":1440,"target":34962,"byteStride":12},{"buffer":0,"byteOffset":34296,"byteLength":960,"target":34962,"byteStride":8},{"buffer":0,"byteOffset":35256,"byteLength":288,"target":34963}],"buffers":[{"byteLength":35544,"uri":"data:application/octet-stream;base64,"}],"accessors":[{"bufferView":0,"componentType":5126,"count":120,"max":[0.03125,0.265625,0.03125],"min":[-0.03125,0.234375,-0.03125],"type":"VEC3"},{"bufferView":1,"componentType":5126,"count":120,"max":[1,1,1],"min":[-1,-1,-1],"type":"VEC3"},{"bufferView":2,"componentType":5126,"count":120,"max":[0.5594375133514404,0.546875],"min":[0.0030624999199062586,0],"type":"VEC2"},{"bufferView":3,"componentType":5123,"count":144,"max":[119],"min":[0],"type":"SCALAR"},{"bufferView":4,"componentType":5126,"count":120,"max":[0.03125,0.265625,0.03125],"min":[-0.03125,0.234375,-0.03125],"type":"VEC3"},{"bufferView":5,"componentType":5126,"count":120,"max":[1,1,1],"min":[-1,-1,-1],"type":"VEC3"},{"bufferView":6,"componentType":5126,"count":120,"max":[0.5906875133514404,0.578125],"min":[0.06556250154972076,0],"type":"VEC2"},{"bufferView":7,"componentType":5123,"count":144,"max":[119],"min":[0],"type":"SCALAR"},{"bufferView":8,"componentType":5126,"count":120,"max":[0.03125,0.265625,0.03125],"min":[-0.03125,0.234375,-0.03125],"type":"VEC3"},{"bufferView":9,"componentType":5126,"count":120,"max":[1,1,1],"min":[-1,-1,-1],"type":"VEC3"},{"bufferView":10,"componentType":5126,"count":120,"max":[0.5906875133514404,0.578125],"min":[0.19056250154972076,0.125],"type":"VEC2"},{"bufferView":11,"componentType":5123,"count":144,"max":[119],"min":[0],"type":"SCALAR"},{"bufferView":12,"componentType":5126,"count":120,"max":[0.03125,0.265625,0.03125],"min":[-0.03125,0.234375,-0.03125],"type":"VEC3"},{"bufferView":13,"componentType":5126,"count":120,"max":[1,1,1],"min":[-1,-1,-1],"type":"VEC3"},{"bufferView":14,"componentType":5126,"count":120,"max":[0.5906875133514404,0.578125],"min":[0.28125,0.21875],"type":"VEC2"},{"bufferView":15,"componentType":5123,"count":144,"max":[119],"min":[0],"type":"SCALAR"},{"bufferView":16,"componentType":5126,"count":24,"max":[0.21875,0.3125,0.078125],"min":[-0.21875,0.1875,-0.078125],"type":"VEC3"},{"bufferView":17,"componentType":5126,"count":24,"max":[1,1,1],"min":[-1,-1,-1],"type":"VEC3"},{"bufferView":18,"componentType":5126,"count":24,"max":[0.46875,0.40625],"min":[0,0],"type":"VEC2"},{"bufferView":19,"componentType":5123,"count":36,"max":[23],"min":[0],"type":"SCALAR"},{"bufferView":20,"componentType":5126,"count":120,"max":[0.03125,0.265625,0.03125],"min":[-0.03125,0.234375,-0.03125],"type":"VEC3"},{"bufferView":21,"componentType":5126,"count":120,"max":[1,1,1],"min":[-1,-1,-1],"type":"VEC3"},{"bufferView":22,"componentType":5126,"count":120,"max":[0.5906875133514404,0.609375],"min":[0.0030624999199062586,0.375],"type":"VEC2"},{"bufferView":23,"componentType":5123,"count":144,"max":[119],"min":[0],"type":"SCALAR"},{"bufferView":24,"componentType":5126,"count":120,"max":[0.03125,0.265625,0.03125],"min":[-0.03125,0.234375,-0.03125],"type":"VEC3"},{"bufferView":25,"componentType":5126,"count":120,"max":[1,1,1],"min":[-1,-1,-1],"type":"VEC3"},{"bufferView":26,"componentType":5126,"count":120,"max":[0.6531875133514404,0.53125],"min":[0.40625,0],"type":"VEC2"},{"bufferView":27,"componentType":5123,"count":144,"max":[119],"min":[0],"type":"SCALAR"},{"bufferView":28,"componentType":5126,"count":24,"max":[0.0625,0.28125,0.109375],"min":[-0.0625,0.21875,-0.109375],"type":"VEC3"},{"bufferView":29,"componentType":5126,"count":24,"max":[1,1,1],"min":[-1,-1,-1],"type":"VEC3"},{"bufferView":30,"componentType":5126,"count":24,"max":[0.5,0.46875],"min":[0.09375,0.09375],"type":"VEC2"},{"bufferView":31,"componentType":5123,"count":36,"max":[23],"min":[0],"type":"SCALAR"},{"bufferView":32,"componentType":5126,"count":24,"max":[0.0625,0.09375,0.0625],"min":[-0.0625,0,-0.0625],"type":"VEC3"},{"bufferView":33,"componentType":5126,"count":24,"max":[1,1,1],"min":[-1,-1,-1],"type":"VEC3"},{"bufferView":34,"componentType":5126,"count":24,"max":[0.46875,0.484375],"min":[0,0.3125],"type":"VEC2"},{"bufferView":35,"componentType":5123,"count":36,"max":[23],"min":[0],"type":"SCALAR"},{"bufferView":36,"componentType":5126,"count":120,"max":[0.0062500000931322575,0.3187499940395355,0.0062500000931322575],"min":[-0.0062500000931322575,0.18125000596046448,-0.0062500000931322575],"type":"VEC3"},{"bufferView":37,"componentType":5126,"count":120,"max":[1,1,1],"min":[-1,-1,-1],"type":"VEC3"},{"bufferView":38,"componentType":5126,"count":120,"max":[0.631418764591217,0.6937500238418579],"min":[0.06389375030994415,0.125],"type":"VEC2"},{"bufferView":39,"componentType":5123,"count":144,"max":[119],"min":[0],"type":"SCALAR"},{"bufferView":40,"componentType":5126,"count":120,"max":[0.0062500000931322575,0.3187499940395355,0.0062500000931322575],"min":[-0.0062500000931322575,0.18125000596046448,-0.0062500000931322575],"type":"VEC3"},{"bufferView":41,"componentType":5126,"count":120,"max":[1,1,1],"min":[-1,-1,-1],"type":"VEC3"},{"bufferView":42,"componentType":5126,"count":120,"max":[0.632031261920929,0.6937500238418579],"min":[0.25139373540878296,0.3125],"type":"VEC2"},{"bufferView":43,"componentType":5123,"count":144,"max":[119],"min":[0],"type":"SCALAR"}],"materials":[{"pbrMetallicRoughness":{"metallicFactor":0,"roughnessFactor":1,"baseColorTexture":{"index":0}},"alphaMode":"MASK","alphaCutoff":0.05,"doubleSided":true}],"textures":[{"sampler":0,"source":0,"name":"texture"}],"samplers":[{"magFilter":9728,"minFilter":9728,"wrapS":33071,"wrapT":33071}],"images":[{"mimeType":"image/png","uri":"data:image/png;base64,"}],"meshes":[{"primitives":[{"mode":4,"attributes":{"POSITION":0,"NORMAL":1,"TEXCOORD_0":2},"indices":3,"material":0}]},{"primitives":[{"mode":4,"attributes":{"POSITION":4,"NORMAL":5,"TEXCOORD_0":6},"indices":7,"material":0}]},{"primitives":[{"mode":4,"attributes":{"POSITION":8,"NORMAL":9,"TEXCOORD_0":10},"indices":11,"material":0}]},{"primitives":[{"mode":4,"attributes":{"POSITION":12,"NORMAL":13,"TEXCOORD_0":14},"indices":15,"material":0}]},{"primitives":[{"mode":4,"attributes":{"POSITION":16,"NORMAL":17,"TEXCOORD_0":18},"indices":19,"material":0}]},{"primitives":[{"mode":4,"attributes":{"POSITION":20,"NORMAL":21,"TEXCOORD_0":22},"indices":23,"material":0}]},{"primitives":[{"mode":4,"attributes":{"POSITION":24,"NORMAL":25,"TEXCOORD_0":26},"indices":27,"material":0}]},{"primitives":[{"mode":4,"attributes":{"POSITION":28,"NORMAL":29,"TEXCOORD_0":30},"indices":31,"material":0}]},{"primitives":[{"mode":4,"attributes":{"POSITION":32,"NORMAL":33,"TEXCOORD_0":34},"indices":35,"material":0}]},{"primitives":[{"mode":4,"attributes":{"POSITION":36,"NORMAL":37,"TEXCOORD_0":38},"indices":39,"material":0}]},{"primitives":[{"mode":4,"attributes":{"POSITION":40,"NORMAL":41,"TEXCOORD_0":42},"indices":43,"material":0}]}]}