{"asset":{"version":"2.0","generator":"Blockbench 4.12.6 glTF exporter"},"scenes":[{"nodes":[2],"name":"blockbench_export"}],"scene":0,"nodes":[{"translation":[0,0.25,0],"name":"sphere","mesh":0},{"rotation":[0,-1,0,6.123233995736766e-17],"translation":[0,0.5,-0.375],"name":"sphere","mesh":1},{"children":[0,1]}],"bufferViews":[{"buffer":0,"byteOffset":0,"byteLength":3024,"target":34962,"byteStride":12},{"buffer":0,"byteOffset":3024,"byteLength":3024,"target":34962,"byteStride":12},{"buffer":0,"byteOffset":6048,"byteLength":2016,"target":34962,"byteStride":8},{"buffer":0,"byteOffset":8064,"byteLength":720,"target":34963},{"buffer":0,"byteOffset":8784,"byteLength":3168,"target":34962,"byteStride":12},{"buffer":0,"byteOffset":11952,"byteLength":3168,"target":34962,"byteStride":12},{"buffer":0,"byteOffset":15120,"byteLength":2112,"target":34962,"byteStride":8},{"buffer":0,"byteOffset":17232,"byteLength":720,"target":34963}],"buffers":[{"byteLength":17952,"uri":"data:application/octet-stream;base64,"}],"accessors":[{"bufferView":0,"componentType":5126,"count":252,"max":[0.25,0.25,0.5],"min":[-0.25,-0.21650634706020355,-0.5],"type":"VEC3"},{"bufferView":1,"componentType":5126,"count":252,"max":[0.9659258127212524,1,0.8814123868942261],"min":[-0.9659258127212524,-1,-0.8814123868942261],"type":"VEC3"},{"bufferView":2,"componentType":5126,"count":252,"max":[0.8928687572479248,0.90625],"min":[0,0],"type":"VEC2"},{"bufferView":3,"componentType":5123,"count":360,"max":[251],"min":[0],"type":"SCALAR"},{"bufferView":4,"componentType":5126,"count":264,"max":[0.125,0.22487975656986237,0.1875],"min":[-0.125,-0.1875,-0.1875],"type":"VEC3"},{"bufferView":5,"componentType":5126,"count":264,"max":[0.9844171404838562,0.9659258127212524,0.9659258127212524],"min":[-0.9844171404838562,-0.9659258127212524,-0.9659258127212524],"type":"VEC3"},{"bufferView":6,"componentType":5126,"count":264,"max":[0.59375,0.5667566061019897],"min":[0.0016996279591694474,0],"type":"VEC2"},{"bufferView":7,"componentType":5123,"count":360,"max":[263],"min":[0],"type":"SCALAR"}],"materials":[{"pbrMetallicRoughness":{"metallicFactor":0,"roughnessFactor":1,"baseColorTexture":{"index":0}},"alphaMode":"MASK","alphaCutoff":0.05,"doubleSided":true},{"pbrMetallicRoughness":{"metallicFactor":0,"roughnessFactor":1,"baseColorTexture":{"index":1}},"alphaMode":"MASK","alphaCutoff":0.05,"doubleSided":true}],"textures":[{"sampler":0,"source":0,"name":"cat texture"},{"sampler":1,"source":1,"name":"head texture"}],"samplers":[{"magFilter":9728,"minFilter":9728,"wrapS":33071,"wrapT":33071},{"magFilter":9728,"minFilter":9728,"wrapS":33071,"wrapT":33071}],"images":[{"mimeType":"image/png","uri":"data:image/png;base64,"},{"mimeType":"image/png","uri":"data:image/png;base64,"}],"meshes":[{"primitives":[{"mode":4,"attributes":{"POSITION":0,"NORMAL":1,"TEXCOORD_0":2},"indices":3,"material":0}]},{"primitives":[{"mode":4,"attributes":{"POSITION":4,"NORMAL":5,"TEXCOORD_0":6},"indices":7,"material":1}]}]}