{"asset":{"version":"2.0","generator":"Blockbench 4.12.6 glTF exporter"},"scenes":[{"nodes":[2],"name":"blockbench_export"}],"scene":0,"nodes":[{"name":"body","mesh":0},{"name":"head","mesh":1},{"children":[0,1]}],"bufferViews":[{"buffer":0,"byteOffset":0,"byteLength":3168,"target":34962,"byteStride":12},{"buffer":0,"byteOffset":3168,"byteLength":3168,"target":34962,"byteStride":12},{"buffer":0,"byteOffset":6336,"byteLength":2112,"target":34962,"byteStride":8},{"buffer":0,"byteOffset":8448,"byteLength":720,"target":34963},{"buffer":0,"byteOffset":9168,"byteLength":3192,"target":34962,"byteStride":12},{"buffer":0,"byteOffset":12360,"byteLength":3192,"target":34962,"byteStride":12},{"buffer":0,"byteOffset":15552,"byteLength":2128,"target":34962,"byteStride":8},{"buffer":0,"byteOffset":17680,"byteLength":720,"target":34963}],"buffers":[{"byteLength":18400,"uri":"data:application/octet-stream;base64,"}],"accessors":[{"bufferView":0,"componentType":5126,"count":264,"max":[0.25,0.4665062427520752,0.5],"min":[-0.25,0,-0.5],"type":"VEC3"},{"bufferView":1,"componentType":5126,"count":264,"max":[0.9659256339073181,0.991144061088562,0.8814136385917664],"min":[-0.9659256339073181,-1,-0.8814136385917664],"type":"VEC3"},{"bufferView":2,"componentType":5126,"count":264,"max":[0.9241190552711487,0.46875],"min":[0.03125,0.015624985098838806],"type":"VEC2"},{"bufferView":3,"componentType":5123,"count":360,"max":[263],"min":[0],"type":"SCALAR"},{"bufferView":4,"componentType":5126,"count":266,"max":[0.125,0.6948800086975098,-0.1875],"min":[-0.125,0.2824999988079071,-0.5625],"type":"VEC3"},{"bufferView":5,"componentType":5126,"count":266,"max":[0.9844170212745667,0.9659264087677002,0.9659264087677002],"min":[-0.9844170212745667,-0.9659264087677002,-0.9659264087677002],"type":"VEC3"},{"bufferView":6,"componentType":5126,"count":266,"max":[0.78125,0.7365034222602844],"min":[0.1892000138759613,0.453125],"type":"VEC2"},{"bufferView":7,"componentType":5123,"count":360,"max":[265],"min":[0],"type":"SCALAR"}],"materials":[{"pbrMetallicRoughness":{"metallicFactor":0,"roughnessFactor":1,"baseColorTexture":{"index":0}},"alphaMode":"MASK","alphaCutoff":0.05,"doubleSided":true}],"textures":[{"sampler":0,"source":0,"name":"orangecat.png"}],"samplers":[{"magFilter":9728,"minFilter":9728,"wrapS":33071,"wrapT":33071}],"images":[{"mimeType":"image/png","uri":"data:image/png;base64,"}],"meshes":[{"primitives":[{"mode":4,"attributes":{"POSITION":0,"NORMAL":1,"TEXCOORD_0":2},"indices":3,"material":0}]},{"primitives":[{"mode":4,"attributes":{"POSITION":4,"NORMAL":5,"TEXCOORD_0":6},"indices":7,"material":0}]}]}